<?xml version='1.0' encoding='utf-8'?>
<svg xmlns="http://www.w3.org/2000/svg" width="1920" height="1080" version="1.1" viewBox="0 0 508 285.75"> <g transform="translate(-2687.5 -13327)" clip-rule="nonzero" fill-rule="nonzero" shape-rendering="auto"> <g transform="translate(2806.5 11808)"> <rect x="-119.06" y="1519.4" width="508" height="285.75" color="#000000" color-rendering="auto" enable-background="accumulate" fill="#1a1c2b" image-rendering="auto" solid-color="#000000" style="isolation:auto;mix-blend-mode:normal"/> <rect x="-119.06" y="1519.4" width="508" height="285.75" color="#000000" color-rendering="auto" enable-background="accumulate" fill="#1a1c2b" image-rendering="auto" solid-color="#000000" style="isolation:auto;mix-blend-mode:normal"/> <path d="m-119.06 1519.4v285.75l508-285.75z" color="#000000" color-rendering="auto" enable-background="accumulate" fill="#0a0b15" image-rendering="auto" opacity=".684" solid-color="#000000" style="isolation:auto;mix-blend-mode:normal"/> <path d="m-119.06 1519.4v285.75l508-285.75z" color="#000000" color-rendering="auto" enable-background="accumulate" fill="#0a0b15" image-rendering="auto" opacity=".684" solid-color="#000000" style="isolation:auto;mix-blend-mode:normal"/> </g> <g transform="translate(2001.5 121.51)" fill="#59f"> <circle cx="940.01" cy="13319" r="49.346" color="#000000" color-rendering="auto" enable-background="accumulate" image-rendering="auto" solid-color="#000000" style="isolation:auto;mix-blend-mode:normal"/> <path d="m940.01 13375a88.385 50.907 0 0 0-88.385 50.908 88.385 50.907 0 0 0 0.0948 1.542l176.59-0.596a88.385 50.907 0 0 0 0.071-0.812v-0.303a88.385 50.907 0 0 0-88.375-50.739z" color="#000000" color-rendering="auto" enable-background="accumulate" image-rendering="auto" solid-color="#000000" style="isolation:auto;mix-blend-mode:normal"/> </g> </g> </svg>